<?xml version="1.0" encoding="UTF-8" standalone="no"?>
<svg
   width="400"
   height="400"
   fill="#5da71a"
   viewBox="0 0 200 200"
   version="1.1"
   id="svg209"
   sodipodi:docname="destiny.svg"
   inkscape:version="1.2.2 (732a01da63, 2022-12-09)"
   xmlns:inkscape="http://www.inkscape.org/namespaces/inkscape"
   xmlns:sodipodi="http://sodipodi.sourceforge.net/DTD/sodipodi-0.dtd"
   xmlns="http://www.w3.org/2000/svg"
   xmlns:svg="http://www.w3.org/2000/svg">
  <defs
     id="defs213" />
  <sodipodi:namedview
     id="namedview211"
     pagecolor="#ffffff"
     bordercolor="#000000"
     borderopacity="0.25"
     inkscape:showpageshadow="2"
     inkscape:pageopacity="0.0"
     inkscape:pagecheckerboard="0"
     inkscape:deskcolor="#d1d1d1"
     showgrid="false"
     inkscape:zoom="2.5675"
     inkscape:cx="200"
     inkscape:cy="199.80526"
     inkscape:window-width="3840"
     inkscape:window-height="2066"
     inkscape:window-x="-11"
     inkscape:window-y="-11"
     inkscape:window-maximized="1"
     inkscape:current-layer="g30" />
  <g
     id="g30"
     transform="matrix(3.3255609,0,0,3.3255609,16.658763,12.241837)">
		<path
   style="fill:#545e73;stroke-width:1.12817"
   d="m 52.342441,5.5117893 v 0 C 51.517751,0.47790736 39.736301,-3.513548 25.317197,-3.513548 c -14.419105,0 -26.20055516,3.99145536 -27.0252454,9.0253373 v 0 h -0.050768 v 0.5640836 12.9739221 0.564084 0.564083 12.409839 0.564084 0.564083 13.538006 h 0.050768 c 0.82469024,5.032754 12.6072684,9.025338 27.0252454,9.025338 14.417976,0 26.200554,-3.992584 27.025244,-9.025338 h 0.05077 V 33.715968 33.151885 32.587801 20.177962 19.613879 19.049795 6.0758729 5.5117893 Z"
   id="path2" />

		<g
   id="g10"
   transform="matrix(1.1281672,0,0,1.1281672,-3.4510666,-3.513548)">
			<path
   style="fill:#7a2800;fill-opacity:1"
   d="M 25.5,41 C 12.245,41 1.5,37.194 1.5,32.5 V 45 h 0.045 c 0.731,4.461 11.175,8 23.955,8 12.78,0 23.224,-3.539 23.955,-8 H 49.5 V 32.5 c 0,4.694 -10.745,8.5 -24,8.5 z"
   id="path4" />

			<path
   style="fill:#38454f"
   d="m 1.5,32 v 0.5 c 0,-0.168 0.018,-0.334 0.045,-0.5 z"
   id="path6" />

			<path
   style="fill:#38454f"
   d="m 49.455,32 c 0.027,0.166 0.045,0.332 0.045,0.5 V 32 Z"
   id="path8" />

		</g>

		<g
   id="g18"
   transform="matrix(1.1281672,0,0,1.1281672,-3.4510666,-3.513548)">
			<path
   style="fill:#c27700;fill-opacity:1"
   d="M 25.5,29 C 12.245,29 1.5,25.194 1.5,20.5 V 33 h 0.045 c 0.731,4.461 11.175,8 23.955,8 12.78,0 23.224,-3.539 23.955,-8 H 49.5 V 20.5 c 0,4.694 -10.745,8.5 -24,8.5 z"
   id="path12" />

			<path
   style="fill:#556080"
   d="m 1.5,20 v 0.5 c 0,-0.168 0.018,-0.334 0.045,-0.5 z"
   id="path14" />

			<path
   style="fill:#556080"
   d="m 49.455,20 c 0.027,0.166 0.045,0.332 0.045,0.5 V 20 Z"
   id="path16" />

		</g>

		<ellipse
   style="fill:#ff9c39;stroke-width:1.12817;fill-opacity:1"
   cx="25.317196"
   cy="6.0758729"
   rx="27.076012"
   ry="9.5894213"
   id="ellipse20" />

		<g
   id="g28"
   transform="matrix(1.1281672,0,0,1.1281672,-3.4510666,-3.513548)">
			<path
   style="fill:#ffc300;fill-opacity:1"
   d="M 25.5,17 C 12.245,17 1.5,13.194 1.5,8.5 V 21 h 0.045 c 0.731,4.461 11.175,8 23.955,8 12.78,0 23.224,-3.539 23.955,-8 H 49.5 V 8.5 c 0,4.694 -10.745,8.5 -24,8.5 z"
   id="path22" />

			<path
   style="fill:#8697cb"
   d="M 1.5,8 V 8.5 C 1.5,8.332 1.518,8.166 1.545,8 Z"
   id="path24" />

			<path
   style="fill:#8697cb"
   d="M 49.455,8 C 49.482,8.166 49.5,8.332 49.5,8.5 V 8 Z"
   id="path26" />

		</g>

	</g>
</svg>
