<svg xmlns="http://www.w3.org/2000/svg" width="400" height="400" fill="#5da71a" viewBox="0 0 200 200"><path d="M200.564 99.876c-16.622-4.598-33.398-8.655-49.874-13.77 11.892-12.156 24.057-24.042 35.921-36.224-16.563 4.13-32.935 9.005-49.553 12.922 4.136-16.634 8.643-33.172 12.98-49.753-12.16 12.051-24.06 24.367-36.496 36.137-4.864-16.418-9.027-33.03-13.538-49.545-4.546 16.525-8.875 33.11-13.658 49.567-12.454-11.618-23.987-24.18-36.44-35.798C54.04 29.873 59 46.125 62.667 62.702c-16.636-4.132-33.122-8.838-49.743-13.03 12.1 12.231 24.424 24.243 36.326 36.67-16.458 4.906-33.15 8.97-49.684 13.605 16.562 4.555 33.183 8.9 49.686 13.667-11.826 12.287-24.092 24.142-35.98 36.369 16.551-4.099 32.895-8.994 49.488-12.928-4.064 16.646-8.579 33.174-12.908 49.75 12.236-11.993 24-24.472 36.588-36.103 4.718 16.44 8.98 33.004 13.447 49.513 4.539-16.522 8.892-33.095 13.697-49.541 12.432 11.675 24.082 24.15 36.425 35.916-4.313-16.48-8.784-32.92-13.06-49.41 16.751 3.938 33.253 8.858 49.963 12.966-12.081-12.26-24.46-24.227-36.366-36.66 16.594-4.822 33.361-9.012 50.017-13.609z"/></svg>